# xmcd
#
# Track frame offsets:
#	150
#	13981
#	31036
#	46293
#	61647
#	87667
#	103440
#	132441
#	146563
#	161066
#	183267
#	196553
#	218612
#
# Disc length: 3202 seconds
#
# Revision: 1
# Processed by: cddbd v1.5.2PL0 Copyright (c) Steve Scherf et al.
# Submitted via: audiograbber 1.83.01
#
DISCID=b10c800d
DTITLE=Andy T Nick Nixon Band - Livin' It Up
DYEAR=2014
DGENRE=Blues
TTITLE0=Baby Right Now
TTITLE1=Best In Town
TTITLE2=Livin' It Down
TTITLE3=My Babys Now On My Mind
TTITLE4=Good Man
TTITLE5=One Note Shuffle
TTITLE6=Back Down South
TTITLE7=Last To Leave
TTITLE8=Let's Say It's For Good
TTITLE9=Snake In The Grass
TTITLE10=Whatever You Had You Ain't Got It No More
TTITLE11=Oh Baby
TTITLE12=Love At First Sight
EXTD=Produced by Anson Funderburgh
EXTT0=
EXTT1=
EXTT2=
EXTT3=
EXTT4=
EXTT5=
EXTT6=
EXTT7=
EXTT8=
EXTT9=
EXTT10=
EXTT11=
EXTT12=
PLAYORDER=
